<?xml version="1.0" standalone="no"?>
<!DOCTYPE svg PUBLIC "-//W3C//DTD SVG 20010904//EN"
 "http://www.w3.org/TR/2001/REC-SVG-20010904/DTD/svg10.dtd">
<svg version="1.0" xmlns="http://www.w3.org/2000/svg"
 width="700.000000pt" height="700.000000pt" viewBox="0 0 700.000000 700.000000"
 preserveAspectRatio="xMidYMid meet">
<metadata>
Created by potrace 1.14, written by Peter Selinger 2001-2017
</metadata>
<g transform="translate(0.000000,700.000000) scale(0.100000,-0.100000)"
fill="#000000" stroke="none">
<path d="M2340 6321 c0 -3 356 -362 791 -797 l790 -790 -258 -253 c-336 -328
-904 -885 -1163 -1139 l-205 -201 1180 0 1180 0 110 106 c154 148 606 586 680
658 34 33 171 166 305 295 134 129 313 303 397 385 l154 150 -796 795 -795
795 -1185 1 c-652 0 -1185 -2 -1185 -5z"/>
<path d="M158 3758 c-5 -18 -3 -1507 3 -1512 2 -2 362 -365 799 -806 l795
-801 1214 2 1213 2 -114 111 c-63 61 -200 193 -304 293 -104 100 -225 217
-270 260 -44 43 -182 175 -305 294 -123 119 -255 246 -294 284 -38 37 -143
137 -233 224 l-163 156 -357 0 -357 0 0 753 0 752 -811 0 c-641 0 -813 -3
-816 -12z"/>
<path d="M5086 2414 l-578 -577 584 -586 c320 -322 592 -593 604 -603 20 -16
35 -2 597 560 l576 577 -603 603 -603 603 -577 -577z"/>
</g>
</svg>
